<?xml version="1.0" standalone="no"?>
<!DOCTYPE svg PUBLIC "-//W3C//DTD SVG 20010904//EN"
 "http://www.w3.org/TR/2001/REC-SVG-20010904/DTD/svg10.dtd">
<svg version="1.0" xmlns="http://www.w3.org/2000/svg"
 width="420.000000pt" height="420.000000pt" viewBox="0 0 420.000000 420.000000"
 preserveAspectRatio="xMidYMid meet">
<metadata>
Created by potrace 1.14, written by Peter Selinger 2001-2017
</metadata>
<g transform="translate(0.000000,420.000000) scale(0.100000,-0.100000)"
fill="#000000" stroke="none">
<path d="M1608 3758 c-16 -5 -28 -13 -28 -18 0 -7 -27 -35 -115 -118 -17 -15
-53 -38 -80 -51 -28 -12 -61 -28 -75 -36 -14 -7 -40 -10 -58 -8 -89 14 -317
-168 -327 -262 0 -5 3 -25 8 -43 6 -25 4 -45 -8 -75 -10 -23 -20 -53 -23 -67
-5 -24 -7 -237 -3 -270 1 -8 2 -44 1 -80 -1 -82 24 -179 53 -205 26 -23 57
-124 57 -184 0 -22 5 -52 10 -66 8 -20 7 -30 -5 -41 -15 -15 -19 -36 -17 -84
2 -32 34 -120 44 -120 4 0 8 -6 8 -14 0 -25 65 -86 92 -86 18 0 45 -19 90 -62
35 -35 81 -76 102 -93 21 -16 49 -40 64 -52 15 -13 33 -23 40 -23 6 0 12 -3
12 -7 0 -5 18 -17 41 -27 22 -11 42 -23 45 -28 3 -4 -1 -27 -7 -50 -15 -54
-15 -52 -31 -118 -16 -66 -55 -108 -237 -250 -69 -54 -136 -109 -148 -122 -34
-36 -124 -219 -111 -224 2 0 -2 -7 -8 -15 -7 -8 -15 -30 -20 -49 -4 -19 -9
-39 -10 -45 -14 -52 -20 -97 -29 -215 -3 -41 -8 -95 -10 -120 -2 -25 -7 -79
-10 -120 -3 -41 -8 -97 -11 -125 -2 -27 -7 -80 -9 -117 l-5 -68 960 0 c529 0
959 4 956 8 -4 7 -7 54 -21 302 -3 41 -7 95 -10 120 -2 25 -8 79 -11 120 -6
79 -7 94 -19 260 -4 58 -10 109 -13 114 -7 12 61 -26 70 -39 5 -7 8 -7 8 0 0
7 3 7 8 0 4 -6 25 -19 47 -30 22 -11 42 -22 45 -25 3 -3 15 -11 28 -17 12 -7
32 -19 45 -25 12 -7 24 -15 27 -18 17 -17 80 -60 88 -60 6 0 12 -3 14 -7 2 -7
61 -53 133 -105 5 -4 24 -19 41 -33 18 -14 37 -25 43 -25 6 0 11 -4 11 -8 0
-11 85 -48 151 -64 67 -18 162 -15 209 5 66 29 127 119 145 214 2 15 7 39 10
53 13 59 17 205 6 277 -6 43 -13 98 -16 122 -3 23 -7 55 -9 70 -6 33 -15 110
-21 181 -13 148 -18 178 -40 236 -13 34 -30 75 -39 93 -9 17 -12 31 -7 31 11
0 5 82 -14 204 -13 82 -27 112 -46 100 -4 -2 -10 -1 -13 4 -3 5 20 17 50 27
39 13 70 34 105 69 27 27 49 55 49 63 0 7 4 13 9 13 5 0 13 10 17 22 6 21 83
138 107 163 6 7 19 23 27 35 8 12 20 28 25 34 26 27 77 108 80 127 6 32 -36
69 -71 63 -16 -3 -31 -9 -34 -13 -5 -7 -94 -122 -112 -146 -67 -84 -72 -69 -8
22 28 39 50 74 50 78 0 4 13 24 30 45 17 21 30 43 30 49 0 6 4 11 9 11 5 0 12
11 15 25 4 14 11 25 16 25 6 0 10 5 10 11 0 6 7 17 15 25 29 30 6 97 -35 105
-21 3 -70 -12 -70 -21 0 -5 -6 -15 -13 -22 -7 -7 -27 -37 -45 -66 -18 -30 -37
-59 -43 -65 -5 -7 -28 -41 -51 -77 -39 -62 -58 -83 -66 -75 -2 2 4 15 14 30
29 45 54 89 60 108 4 9 10 17 15 17 5 0 9 7 9 15 0 8 4 15 9 15 5 0 12 11 15
25 4 14 11 25 17 25 6 0 7 5 4 10 -3 6 -3 10 2 10 4 0 14 15 22 33 8 17 17 34
20 37 13 11 34 55 38 81 13 88 -95 104 -138 21 -8 -15 -16 -29 -19 -32 -6 -6
-23 -36 -52 -91 -11 -21 -24 -42 -29 -45 -5 -3 -7 -10 -4 -15 4 -5 1 -9 -4 -9
-6 0 -11 -7 -11 -15 0 -8 -3 -15 -7 -15 -5 0 -16 -17 -26 -38 -10 -20 -27 -48
-37 -62 -19 -25 -19 -25 -17 -2 1 12 5 22 9 22 4 0 7 3 6 8 -3 9 54 125 65
133 5 3 8 8 7 10 -3 7 24 64 33 70 5 3 8 8 7 10 -1 2 3 17 9 32 21 55 7 91
-40 102 -29 7 -64 -19 -87 -65 -7 -14 -25 -48 -40 -75 -15 -28 -36 -70 -47
-95 -11 -25 -26 -51 -33 -59 -7 -7 -16 -26 -19 -42 -3 -16 -9 -29 -14 -29 -5
0 -9 -6 -9 -14 0 -8 -6 -21 -13 -28 -7 -7 -18 -21 -24 -32 -10 -18 -11 -17
-31 4 -11 12 -25 42 -31 66 -18 72 -79 122 -141 115 -36 -4 -70 -28 -70 -51 0
-23 20 -70 30 -70 4 0 20 -25 35 -56 24 -49 27 -65 25 -147 -1 -51 -1 -105 -1
-122 3 -49 29 -151 56 -215 32 -75 32 -104 2 -117 -23 -11 -24 -14 -25 -159
-1 -84 3 -151 8 -154 6 -4 6 -19 0 -41 -6 -18 -12 -45 -15 -59 -3 -14 -7 -36
-10 -50 -3 -14 -5 -87 -5 -162 0 -76 -2 -138 -6 -138 -9 0 -102 68 -139 102
-16 15 -77 73 -134 128 -57 56 -113 106 -125 111 -12 5 -34 18 -51 28 -16 10
-33 16 -37 14 -5 -2 -8 1 -8 8 0 7 -3 10 -6 7 -3 -4 -20 0 -38 7 -42 18 -133
29 -216 28 -50 -1 -96 -12 -195 -47 -74 -26 -133 -42 -139 -36 -5 5 5 15 22
24 33 17 132 112 172 165 14 18 30 38 36 45 18 19 72 137 79 171 4 17 9 48 12
70 2 22 16 57 31 78 23 34 26 48 26 125 0 101 -5 152 -15 152 -4 0 -9 9 -12
20 -3 12 -14 20 -25 20 -19 0 -20 6 -17 167 4 149 2 173 -17 227 -13 40 -22
93 -24 152 -2 49 -10 110 -18 135 -8 24 -17 64 -21 89 -14 86 -44 147 -101
205 -30 30 -67 58 -82 61 -43 11 -44 14 -17 41 33 34 37 74 9 103 -14 13 -18
12 -40 -14 -21 -24 -30 -27 -57 -22 -17 4 -49 18 -70 32 -73 48 -177 64 -246
37 -20 -8 -30 -5 -48 11 -26 22 -78 44 -103 44 -8 0 -27 -4 -42 -10z"/>
</g>
</svg>
